<svg width="1033" height="262" viewBox="0 0 1033 262" fill="none" xmlns="http://www.w3.org/2000/svg">
<path d="M71.168 261.12C40.448 261.12 17.408 251.904 0 233.728L19.456 187.904C35.584 220.672 67.072 249.344 105.728 249.344C114.944 249.344 122.624 243.456 122.624 233.472C122.624 189.44 4.864 195.584 4.864 130.56C4.864 97.792 35.328 81.92 73.984 81.92C102.4 81.92 125.184 93.952 133.888 99.84L114.432 138.496C97.28 119.296 71.168 93.952 37.888 93.952C25.6 93.952 19.968 102.4 19.968 110.848C19.968 157.696 138.24 147.968 138.24 214.016C138.24 245.76 109.568 261.12 71.168 261.12ZM143.38 100.352C162.324 98.0479 185.364 89.6 198.676 81.92V258.56H161.556V118.272C161.556 104.448 155.924 101.632 143.38 101.632V100.352ZM156.948 51.456C156.948 39.936 166.42 30.464 178.196 30.464C189.972 30.464 199.444 39.936 199.444 51.456C199.444 63.232 189.972 72.7039 178.196 72.7039C166.42 72.7039 156.948 63.232 156.948 51.456ZM214.88 18.432C233.824 16.128 256.864 7.67999 270.176 0V258.56H233.056V35.3279C233.056 21.5039 227.424 19.712 214.88 19.712V18.432ZM385.214 261.12C337.598 261.12 298.43 223.488 298.43 174.08C298.43 126.464 322.494 81.92 381.886 81.92C419.774 81.92 444.606 103.936 444.606 127.488C444.606 150.528 423.87 157.952 402.366 168.192C377.79 179.968 351.934 193.792 340.926 199.68C353.726 216.576 373.182 227.072 397.246 227.072C416.446 227.072 435.39 218.624 445.374 205.824H446.654L432.062 251.648C418.494 258.56 401.598 261.12 385.214 261.12ZM362.942 89.3439C334.526 89.3439 322.238 114.944 322.238 139.776C322.238 161.536 328.126 181.504 338.878 196.864C354.238 188.16 407.486 155.392 407.486 127.488C407.486 113.92 399.294 89.3439 362.942 89.3439ZM451.88 100.352C470.824 98.0479 493.864 89.6 507.176 81.92V136.96C510.76 115.456 532.776 81.92 569.896 81.92C583.464 81.92 613.928 84.48 613.928 130.56V258.56H576.808V117.76C576.808 101.376 568.36 93.4399 556.072 93.4399C528.68 93.4399 507.176 126.208 507.176 161.792V258.56H470.056V118.272C470.056 104.448 464.424 101.632 451.88 101.632V100.352ZM728.964 261.12C681.348 261.12 642.18 224 642.18 175.36C642.18 128.512 671.364 84.4799 721.028 84.4799C755.332 84.4799 780.164 98.56 795.268 132.096L763.78 148.736C752.516 120.064 735.876 91.904 704.9 91.904C679.044 91.904 665.988 116.992 665.988 141.568C665.988 188.928 694.404 227.584 740.996 227.584C760.196 227.584 779.14 219.136 789.124 206.592H790.404L775.812 251.904C762.244 258.56 745.348 261.12 728.964 261.12ZM800.38 100.352C819.324 98.0479 842.364 89.6 855.676 81.92V258.56H818.556V118.272C818.556 104.448 812.924 101.632 800.38 101.632V100.352ZM813.948 51.456C813.948 39.936 823.42 30.464 835.196 30.464C846.972 30.464 856.444 39.936 856.444 51.456C856.444 63.232 846.972 72.7039 835.196 72.7039C823.42 72.7039 813.948 63.232 813.948 51.456ZM971.464 261.12C923.848 261.12 884.68 223.488 884.68 174.08C884.68 126.464 908.744 81.92 968.136 81.92C1006.02 81.92 1030.86 103.936 1030.86 127.488C1030.86 150.528 1010.12 157.952 988.616 168.192C964.04 179.968 938.184 193.792 927.176 199.68C939.976 216.576 959.432 227.072 983.496 227.072C1002.7 227.072 1021.64 218.624 1031.62 205.824H1032.9L1018.31 251.648C1004.74 258.56 987.848 261.12 971.464 261.12ZM949.192 89.3439C920.776 89.3439 908.488 114.944 908.488 139.776C908.488 161.536 914.376 181.504 925.128 196.864C940.488 188.16 993.736 155.392 993.736 127.488C993.736 113.92 985.544 89.3439 949.192 89.3439Z" fill="white"/>
</svg>
